<?xml version="1.0" standalone="no"?>
<!DOCTYPE svg PUBLIC "-//W3C//DTD SVG 20010904//EN"
 "http://www.w3.org/TR/2001/REC-SVG-20010904/DTD/svg10.dtd">
<svg version="1.0" xmlns="http://www.w3.org/2000/svg"
 width="96.000000pt" height="96.000000pt" viewBox="0 0 96.000000 96.000000"
 preserveAspectRatio="xMidYMid meet">

<g transform="translate(0.000000,96.000000) scale(0.100000,-0.100000)"
fill="#000000" stroke="none">
<path d="M575 896 c-8 -19 -15 -41 -15 -47 0 -7 -7 -20 -16 -30 -9 -10 -18
-40 -21 -66 -2 -26 -14 -87 -26 -135 -20 -83 -22 -87 -53 -93 -36 -6 -79 -37
-95 -68 -7 -11 -33 -101 -60 -200 -26 -99 -51 -182 -54 -185 -3 -4 -15 -1 -25
6 -27 17 -30 15 -30 -12 0 -31 46 -51 97 -42 21 4 49 6 63 5 26 -1 86 -2 130
-1 14 1 51 1 83 1 128 -1 198 0 230 2 21 1 27 7 27 25 0 30 -33 40 -62 20 -29
-21 -61 -20 -88 2 l-21 17 31 120 c40 148 38 205 -8 246 l-30 27 22 89 c13 49
31 101 41 116 16 24 23 66 28 166 2 30 -2 35 -33 46 -20 7 -50 16 -68 20 -30
6 -33 4 -47 -29z m93 -26 c13 0 16 -38 4 -58 -13 -19 -72 -4 -72 18 0 36 12
52 34 46 11 -3 27 -6 34 -6z m0 -124 c2 -3 1 -9 -2 -15 -4 -6 -19 -6 -44 0
-59 16 -62 17 -56 32 4 13 12 13 51 1 26 -8 48 -16 51 -18z m-44 -67 c5 -5 0
-43 -13 -92 -23 -82 -23 -83 -52 -79 -16 2 -32 8 -34 13 -3 4 4 47 17 93 21
83 23 85 47 79 14 -3 30 -9 35 -14z m-69 -218 c78 -22 105 -47 104 -95 0 -17
-17 -92 -37 -166 -41 -149 -48 -157 -110 -124 -31 17 -35 17 -62 1 -36 -21
-55 -21 -91 0 -24 14 -33 15 -49 5 -11 -6 -21 -12 -23 -12 -2 0 18 82 45 183
64 241 73 249 223 208z"/>
</g>
</svg>
