<svg xmlns="http://www.w3.org/2000/svg" viewBox="0 0 32 32">
  <defs>
    <linearGradient id="g" x1="0" y1="0" x2="1" y2="1">
      <stop offset="0" stop-color="#17a583"/>
      <stop offset="1" stop-color="#fcd221"/>
    </linearGradient>
  </defs>
  <rect x="1" y="1" width="30" height="30" rx="7" fill="url(#g)" stroke="#1a1a1a" stroke-width="2"/>
  <g transform="translate(4 4)" shape-rendering="crispEdges">
    <path fill="#1a1a1a" d="M14 1h4v1H14zM14 2h1v1H14zM16 2h2v1H16zM14 3h1v1H14zM16 3h2v1H16zM13 4h5v1H13zM13 5h2v1H13zM16 5h2v1H16zM13 6h5v1H13zM13 7h1v1H13zM15 7h2v1H15zM12 8h2v1H12zM15 8h2v1H15zM12 9h1v1H12zM15 9h2v1H15zM12 10h1v1H12zM14 10h2v1H14zM9 11h7v1H9zM9 12h1v1H9zM14 12h3v1H14zM8 13h2v1H8zM15 13h2v1H15zM8 14h1v1H8zM10 14h1v1H10zM15 14h3v1H15zM8 15h1v1H8zM10 15h1v1H10zM15 15h3v1H15zM7 16h2v1H7zM10 16h1v1H10zM15 16h2v1H15zM7 17h1v1H7zM14 17h3v1H14zM7 18h1v1H7zM14 18h3v1H14zM7 19h1v1H7zM14 19h3v1H14zM6 20h2v1H6zM14 20h2v1H14zM6 21h2v1H6zM13 21h3v1H13zM0 22h22v1H0zM2 23h2v1H2zM5 23h2v1H5zM9 23h2v1H9zM13 23h2v1H13zM17 23h2v1H17zM20 23h2v1H20z"/>
    <rect x="23" y="22" width="1" height="1" fill="#f4f1ea"/>
  </g>
</svg>
